# xmcd
#
# Track frame offsets:
#	150
#	20370
#	36310
#	52317
#	69452
#	86707
#	105120
#	117780
#	137202
#	154402
#	173747
#	193967
#	209905
#	225912
#	243047
#	260305
#	278715
#	291377
#	310800
#	328000
#
# Disc length: 4631 seconds
#
# Revision: 3
# Processed by: cddbd v1.5.2PL0 Copyright (c) Steve Scherf et al.
# Submitted via: audiograbber 1.83.01
#
DISCID=26121514
DTITLE=Various Artist - THC0402 
DYEAR=2004
DGENRE=Country
TTITLE0=Alan Jackson  - Remember When (Vocal)
TTITLE1=Buddy Jewel - Sweet southern comfort  (Vocals)
TTITLE2=Dierks Bentley -  My last name (Vocal)
TTITLE3=Rebecca Lynn Howard  -  I need a vacation (Vocal)
TTITLE4=Tracy Lawrence -  Paint me a Birmingham (Vocals)
TTITLE5=Ryan Tyler - Run, run, run  (Vocal)
TTITLE6=George Strait -  Honkytonkville (Vocals)
TTITLE7=Kenny Chesney  - There goes my life (Vocal)
TTITLE8=Patty Loveless On your way home  - On your way home (Vocals)
TTITLE9=Tim McGraw  - Watch the wind blow  (Vocal)
TTITLE10=Alan Jackson - Remember when
TTITLE11=Buddy Jewel - Sweet southern comfort
TTITLE12=Dierks Bentley - My last name
TTITLE13=Rebecca Lynn Howard  - I need a vacation
TTITLE14=Tracy Lawrence - Paint me a Birmingham
TTITLE15=Ryan Tyler - Run, run, run
TTITLE16=George Strait - Honkytonkville
TTITLE17=Kenny Chesney - There goes my life
TTITLE18=Patty Loveless - On your way home
TTITLE19=Tim McGraw - Watch the wind blow
EXTD=
EXTT0=
EXTT1=
EXTT2=
EXTT3=
EXTT4=
EXTT5=
EXTT6=
EXTT7=
EXTT8=
EXTT9=
EXTT10=
EXTT11=
EXTT12=
EXTT13=
EXTT14=
EXTT15=
EXTT16=
EXTT17=
EXTT18=
EXTT19=
PLAYORDER=
